<?xml version="1.0" encoding="UTF-8" standalone="no"?>
<svg
   width="1958pt"
   height="389pt"
   viewBox="0 0 1958 389"
   version="1.1"
   id="svg9"
   sodipodi:docname="toolathlon.svg"
   xml:space="preserve"
   inkscape:version="1.4.2 (f4327f4, 2025-05-13)"
   xmlns:inkscape="http://www.inkscape.org/namespaces/inkscape"
   xmlns:sodipodi="http://sodipodi.sourceforge.net/DTD/sodipodi-0.dtd"
   xmlns="http://www.w3.org/2000/svg"
   xmlns:svg="http://www.w3.org/2000/svg"><defs
     id="defs9" /><sodipodi:namedview
     id="namedview9"
     pagecolor="#ffffff"
     bordercolor="#000000"
     borderopacity="0.25"
     inkscape:showpageshadow="2"
     inkscape:pageopacity="0.0"
     inkscape:pagecheckerboard="0"
     inkscape:deskcolor="#d1d1d1"
     inkscape:document-units="pt"
     inkscape:zoom="0.74393941"
     inkscape:cx="1299.1649"
     inkscape:cy="264.80651"
     inkscape:window-width="2560"
     inkscape:window-height="1476"
     inkscape:window-x="-12"
     inkscape:window-y="-12"
     inkscape:window-maximized="1"
     inkscape:current-layer="svg9" /><path
     fill="#3642b8"
     stroke="#3642b8"
     stroke-width="0.09375"
     opacity="1"
     d="m 877.20088,255.88883 c 20.79081,8.85378 60.40283,-31.02837 68.82283,-45.04837 23.02,-36.65 45.83,-73.43 69.02999,-109.96 23.32,-0.01 46.64,-0.03 69.97,0.03 0.03,64.98 0.03,129.96 0,194.95 -16.32,0.04 -32.62,0.06 -48.93,0.01 -0.05,-11.9 -0.03,-23.79 -0.38,-35.67 -22.16,-0.27 -44.35999,-0.93 -66.49999,-0.01 -8.54,6.31 -14.93,15.14 -23.87,21.01 -35.44588,24.56526 -32.81661,15.21768 -67.17955,-11.92453 -14.42,-11.08 -69.17208,5.15057 -74.50208,-12.01943 m 188.26163,-36.41604 c 14.69999,0.09 29.38999,0.06 44.09999,0.02 -0.06,-23.47 0.33,-46.95 -0.32,-70.41 -15.09,23.14 -29.15,46.95 -43.77999,70.39 z"
     id="path2"
     sodipodi:nodetypes="ccccccccccccccc" /><path
     fill="#3642b8"
     stroke="#3642b8"
     stroke-width="0.09375"
     opacity="1"
     d="m 1652.4537,97.310464 c 28.85,-2.01 59.3,7.319996 79.4,28.759996 20.55,21.98 27.42,53.47 25.19,82.8 -1.77,29.48 -16.05,59.44 -41.67,75.35 -30.2,18.78 -70.06,20.13 -102.23,5.55 -17.04,-8.24 -31.46,-22.01 -40.09,-38.88 -10.21,-18.48 -12.49,-40.25 -11.91,-61.02 1.38,-25.24 11.35,-50.45 29.82,-68.07 16.72,-15.26 39.04,-23.349996 61.49,-24.489996 m 0.03,45.079996 c -13.4,1.06 -25.71,9 -32.29,20.66 -8.95,15.95 -9.57,35.32 -6.28,52.95 2.11,11.95 7.91,23.83 18.2,30.79 13.65,9.94 32.39,9.84 47.64,3.84 15.78,-6.71 24.33,-23.76 25.83,-40.15 1.64,-18.89 0.43,-40.43 -12.82,-55.35 -10.11,-10.9 -25.89,-14.86 -40.28,-12.74 z"
     id="path3" /><path
     fill="#3642b8"
     stroke="#3642b8"
     stroke-width="0.09375"
     opacity="1"
     d="m 469.44042,97.310559 c 28.85,-2.010004 59.3,7.319991 79.4,28.759991 20.55,21.98 27.42,53.47 25.19,82.8 -1.77,29.48 -16.05,59.44 -41.67,75.35 -30.2,18.78 -70.06,20.13 -102.23,5.55 -17.04,-8.24 -31.46,-22.01 -40.09,-38.88 -10.21,-18.48 -12.49,-40.25 -11.91,-61.02 1.38,-25.24 11.35,-50.45 29.82,-68.07 16.72,-15.26 39.04,-23.349991 61.49,-24.489991 m 0.03,45.079991 c -13.4,1.06 -25.71,9 -32.29,20.66 -8.95,15.95 -9.57,35.32 -6.28,52.95 2.11,11.95 7.91,23.83 18.2,30.79 13.65,9.94 32.39,9.84 47.64,3.84 15.78,-6.71 24.33,-23.76 25.83,-40.15 1.64,-18.89 0.43,-40.43 -12.82,-55.35 -10.11,-10.9 -25.89,-14.86 -40.28,-12.74 z"
     id="path3-9" /><path
     fill="#3642b8"
     stroke="#3642b8"
     stroke-width="0.0937501"
     opacity="1"
     d="m 673.04942,97.310429 c 28.85,-2.00902 59.3,7.316381 79.4,28.745801 20.55,21.96919 27.42,53.44369 25.19,82.75924 -1.77,29.46551 -16.05,59.41074 -41.67,75.31292 -30.2,18.77075 -70.06,20.12009 -102.23,5.54726 -17.04,-8.23593 -31.46,-21.99915 -40.09,-38.86085 -10.21,-18.47091 -12.49,-40.23019 -11.91,-60.98996 1.38,-25.22756 11.35,-50.42516 29.82,-68.03648 16.72,-15.25251 39.04,-23.338501 61.49,-24.477931 m 0.03,45.057791 c -13.4,1.05947 -25.71,8.99558 -32.29,20.64984 -8.95,15.94214 -9.57,35.30261 -6.28,52.92391 2.11,11.94413 7.91,23.81828 18.2,30.77485 13.65,9.93511 32.39,9.83516 47.64,3.83811 15.78,-6.7067 24.33,-23.74831 25.83,-40.13024 1.64,-18.8807 0.43,-40.4101 -12.82,-55.32274 -10.11,-10.89463 -25.89,-14.85269 -40.28,-12.73373 z"
     id="path3-8" /><path
     fill="#3642b8"
     stroke="#3642b8"
     stroke-width="0.09375"
     opacity="1"
     d="m 1098.0537,100.89046 c 49.33,-0.02 98.65,-0.02 147.98,0 0.02,13.99 0.03,27.98 0,41.98 -16.34,0.03 -32.66,-0.01 -48.98,0.02 -0.06,51 0.03,101.99 -0.02,152.98 -16.67,0.03 -33.32,0.04 -49.97,-0.01 -0.07,-50.99 0.02,-101.98 -0.03,-152.97 -16.34,-0.03 -32.66,0.01 -48.98,-0.02 -0.04,-14 -0.04,-27.99 0,-41.98 z"
     id="path6" /><path
     fill="#3642b8"
     stroke="#3642b8"
     stroke-width="0.09375"
     opacity="1"
     d="m 235.07687,100.89087 c 49.33,-0.02 98.65,-0.02 147.98,0 0.02,13.99 0.03,27.98 0,41.98 -16.34,0.03 -32.66,-0.01 -48.98,0.02 -0.06,51 0.03,101.99 -0.02,152.98 -16.67,0.03 -33.32,0.04 -49.97,-0.01 -0.07,-50.99 0.02,-101.98 -0.03,-152.97 -16.34,-0.03 -32.66,0.01 -48.98,-0.02 -0.04,-14 -0.04,-27.99 0,-41.98 z"
     id="path6-5" /><path
     fill="#3642b8"
     stroke="#3642b8"
     stroke-width="0.09375"
     opacity="1"
     d="m 1258.0537,100.89046 c 16.65,-0.04 33.3,-0.04 49.96,0.01 0.08,24.65 -0.03,49.31 0.05,73.96 22.65,0.05 45.3,0.04 67.97,0 0.06,-24.65 -0.05,-49.31 0.03,-73.97 16.64,-0.04 33.3,-0.04 49.96,0.01 0.03,64.99 0.03,129.97 0,194.96 -16.66,0.05 -33.31,0.05 -49.95,0 -0.22,-26.22 0.3,-52.44 -0.26,-78.65 -22.48,-0.56 -44.97,-0.51 -67.44,-0.05 -0.71,26.22 -0.15,52.46 -0.35,78.7 -16.56,0 -33.11,0.26 -49.66,-0.21 -0.74,-64.92 -0.13,-129.84 -0.31,-194.76 z"
     id="path7" /><path
     fill="#3642b8"
     stroke="#3642b8"
     stroke-width="0.09375"
     opacity="1"
     d="m 1440.0637,100.90046 c 16.64,-0.05 33.3,-0.05 49.96,0 0.22,50.88 -0.33,101.77 0.26,152.66 25.24,0.68 50.5,0.15 75.76,0.34 0.03,13.89 0.1,27.77 -0.27,41.66 -41.9,0.72 -83.81,0.16 -125.71,0.3 -0.04,-64.99 -0.04,-129.97 0,-194.96 z"
     id="path8" /><path
     fill="#3642b8"
     stroke="#3642b8"
     stroke-width="0.09375"
     opacity="1"
     d="m 789.6623,100.90038 c 16.64,-0.05 33.3,-0.05 49.96,0 0.22,50.88 -0.33,101.77 0.26,152.66 25.24,0.68 50.5,0.15 75.76,0.34 0.03,13.89 0.1,27.77 -0.27,41.66 -41.9,0.72 -83.81,0.16 -125.71,0.3 -0.04,-64.99 -0.04,-129.97 0,-194.96 z"
     id="path8-1" /><path
     fill="#3642b8"
     stroke="#3642b8"
     stroke-width="0.09375"
     opacity="1"
     d="m 1769.0637,100.91046 c 17.21,-0.07 34.43,-0.13 51.65,0.11 21.33,35.41 42.5,70.93 64.06,106.21 0.61,-35.44 0.08,-70.89 0.29,-106.34 15.97,-0.03 31.97,-0.04 47.97,0 0.01,64.99 0.03,129.98 -0.01,194.97 -16.3,0.04 -32.58,0.08 -48.85,-0.02 -22.19,-37.16 -44.16,-74.45 -66.95,-111.23 -0.43,37.08 -0.04,74.17 -0.2,111.26 -16,0.03 -31.99,0.04 -47.97,0 -0.02,-64.99 -0.03,-129.97 0.01,-194.96 z"
     id="path9" /><g
     transform="matrix(0.01588731,0,0,-0.01586157,16.655443,297.97185)"
     fill="#000000"
     stroke="none"
     id="g3"
     style="fill:#3642b8;fill-opacity:1"><path
       d="m 1521,12322 -81,-162 52,-30 c 29,-16 406,-232 838,-479 l 785,-449 -2,-128 c -3,-157 -24,-311 -63,-472 -124,-508 -428,-915 -892,-1196 l -77,-47 -808,462 c -444,254 -822,470 -840,481 l -32,19 -41,-80 -40,-81 45,-126 c 171,-469 434,-893 728,-1171 469,-443 1087,-674 1877,-699 212,-7 259,-16 377,-79 229,-121 522,-350 963,-750 236,-214 353,-327 721,-693 l 327,-324 642,642 643,641 -345,347 c -925,930 -1467,1555 -1666,1922 -61,113 -69,157 -76,395 -14,492 -80,830 -217,1124 -134,286 -364,533 -647,693 -432,245 -1019,370 -1854,394 l -236,7 z"
       id="path1"
       style="fill:#3642b8;fill-opacity:1" /><path
       d="m 10805,11524 c -434,-304 -796,-563 -803,-576 -7,-13 -46,-160 -88,-328 l -75,-304 -2320,-2318 -2319,-2318 -320,200 -320,200 -160,-160 c -156,-156 -160,-162 -160,-203 0,-61 -17,-171 -40,-259 -93,-362 -401,-708 -826,-925 -208,-107 -435,-181 -632,-205 L 2639,4315 1318,2995 -3,1676 4,1590 C 31,1228 238,837 571,515 858,238 1172,69 1505,15 1555,7 1615,0 1639,0 h 44 l 1319,1319 c 1220,1222 1318,1322 1318,1353 0,108 55,333 122,503 209,526 590,912 1015,1025 43,12 130,26 195,33 l 116,11 157,156 157,157 -201,321 -201,322 2310,2309 c 1271,1269 2317,2314 2325,2321 8,7 155,47 326,90 171,43 317,84 324,92 7,7 261,367 564,800 l 550,787 -208,208 c -115,114 -224,222 -242,239 l -34,32 z"
       id="path2-8"
       style="fill:#3642b8;fill-opacity:1" /><path
       d="m 6957,5998 -639,-641 435,-436 c 614,-617 916,-935 1222,-1291 332,-386 540,-689 574,-840 5,-25 12,-139 16,-255 19,-728 166,-1185 488,-1522 144,-151 281,-251 477,-348 425,-212 972,-318 1752,-341 l 236,-7 81,161 81,162 -52,30 c -29,16 -406,232 -838,479 l -785,449 2,123 c 12,707 353,1310 945,1667 l 87,53 808,-462 c 444,-254 822,-470 840,-481 l 32,-19 40,80 40,79 -28,84 c -70,206 -198,481 -314,673 -413,684 -1033,1083 -1872,1204 -161,23 -386,41 -528,41 -152,0 -259,42 -472,183 -339,226 -775,617 -1575,1414 -223,221 -408,403 -410,402 -3,0 -292,-289 -643,-641 z"
       id="path3-2"
       style="fill:#3642b8;fill-opacity:1" /></g><text
     xml:space="preserve"
     style="font-size:9px;text-align:start;writing-mode:lr-tb;direction:ltr;text-anchor:start;fill:#000000;stroke-width:0.75"
     x="527.09637"
     y="40.098125"
     id="text9"><tspan
       sodipodi:role="line"
       id="tspan9"
       style="stroke-width:0.75"
       x="527.09637"
       y="40.098125"></tspan></text></svg>
